HIERARCHY
ROOT Hips
{
	OFFSET 0.000000 0.000000 0.000000
	CHANNELS 6 Xposition Yposition Zposition Xrotation Yrotation Zrotation
	JOINT LeftUpLeg_virtual
	{
		OFFSET 0.000000 0.000000 0.000000
		CHANNELS 3 Xrotation Yrotation Zrotation
		JOINT LeftUpLeg
		{
			OFFSET 13.026900 -6.336304 -1.092800
			CHANNELS 3 Xrotation Yrotation Zrotation
			JOINT LeftLeg
			{
				OFFSET 0.524474 -46.096886 9.782700
				CHANNELS 3 Xrotation Yrotation Zrotation
				JOINT LeftFoot
				{
					OFFSET -0.524474 -53.427422 -12.948200
					CHANNELS 3 Xrotation Yrotation Zrotation
					JOINT LeftToeBase
					{
						OFFSET 0.192200 -14.009700 16.364100
						CHANNELS 3 Xrotation Yrotation Zrotation
						JOINT LeftToe_End
						{
							OFFSET -1.784700 -0.561700 9.474800
							CHANNELS 3 Xrotation Yrotation Zrotation
							End Site
							{
								OFFSET 0 0 0
							}
						}
					}
				}
			}
		}
	}
	JOINT RightUpLeg_virtual
	{
		OFFSET 0.000000 0.000000 0.000000
		CHANNELS 3 Xrotation Yrotation Zrotation
		JOINT RightUpLeg
		{
			OFFSET -12.883000 -6.336304 -1.092800
			CHANNELS 3 Xrotation Yrotation Zrotation
			JOINT RightLeg
			{
				OFFSET -0.524587 -46.096825 9.782800
				CHANNELS 3 Xrotation Yrotation Zrotation
				JOINT RightFoot
				{
					OFFSET 0.524587 -53.427383 -12.948300
					CHANNELS 3 Xrotation Yrotation Zrotation
					JOINT RightToeBase
					{
						OFFSET -0.192200 -14.009700 16.364100
						CHANNELS 3 Xrotation Yrotation Zrotation
						JOINT RightToe_End
						{
							OFFSET 1.784700 -0.561700 9.474800
							CHANNELS 3 Xrotation Yrotation Zrotation
							End Site
							{
								OFFSET 0 0 0
							}
						}
					}
				}
			}
		}
	}
	JOINT Spine_virtual
	{
		OFFSET 0.000000 0.000000 0.000000
		CHANNELS 3 Xrotation Yrotation Zrotation
		JOINT Spine
		{
			OFFSET 0.072000 7.257294 -0.789700
			CHANNELS 3 Xrotation Yrotation Zrotation
			JOINT Spine1
			{
				OFFSET 0.000000 12.508769 -0.658067
				CHANNELS 3 Xrotation Yrotation Zrotation
				JOINT Spine1_split
				{
					OFFSET 0.000000 12.508769 -0.658067
					CHANNELS 3 Xrotation Yrotation Zrotation
					JOINT Spine2
					{
						OFFSET 0.000000 12.508769 -0.658067
						CHANNELS 3 Xrotation Yrotation Zrotation
						JOINT Neck_virtual
						{
							OFFSET 0.000000 0.000000 0.000000
							CHANNELS 3 Xrotation Yrotation Zrotation
							JOINT Neck
							{
								OFFSET 0.000000 14.033295 7.520400
								CHANNELS 3 Xrotation Yrotation Zrotation
								JOINT Head
								{
									OFFSET 0.000000 8.198502 5.703100
									CHANNELS 3 Xrotation Yrotation Zrotation
									JOINT HeadTop_End
									{
										OFFSET 0.000000 17.760803 13.332701
										CHANNELS 3 Xrotation Yrotation Zrotation
										End Site
										{
											OFFSET 0 0 0
										}
									}
								}
							}
						}
						JOINT LeftShoulder_virtual
						{
							OFFSET 0.000000 0.000000 0.000000
							CHANNELS 3 Xrotation Yrotation Zrotation
							JOINT LeftShoulder
							{
								OFFSET 6.292450 5.785301 -0.669000
								CHANNELS 3 Xrotation Yrotation Zrotation
								JOINT LeftShoulder_split
								{
									OFFSET 6.292450 5.785301 -0.669000
									CHANNELS 3 Xrotation Yrotation Zrotation
									JOINT LeftArm
									{
										OFFSET 13.907140 -6.093903 1.965100
										CHANNELS 3 Xrotation Yrotation Zrotation
										JOINT LeftForeArm
										{
											OFFSET 34.140198 0.000000 0.000000
											CHANNELS 3 Xrotation Yrotation Zrotation
											JOINT LeftHand
											{
												OFFSET 40.960209 0.000000 0.000000
												CHANNELS 3 Xrotation Yrotation Zrotation
												End Site
												{
													OFFSET 0 0 0
												}
											}
										}
									}
								}
							}
						}
						JOINT RightShoulder_virtual
						{
							OFFSET 0.000000 0.000000 0.000000
							CHANNELS 3 Xrotation Yrotation Zrotation
							JOINT RightShoulder
							{
								OFFSET -6.292450 5.785301 -0.669000
								CHANNELS 3 Xrotation Yrotation Zrotation
								JOINT RightShoulder_split
								{
									OFFSET -6.292450 5.785301 -0.669000
									CHANNELS 3 Xrotation Yrotation Zrotation
									JOINT RightArm
									{
										OFFSET -13.907140 -6.093903 1.965100
										CHANNELS 3 Xrotation Yrotation Zrotation
										JOINT RightForeArm
										{
											OFFSET -34.140198 0.000000 0.000000
											CHANNELS 3 Xrotation Yrotation Zrotation
											JOINT RightHand
											{
												OFFSET -40.960209 0.000000 0.000000
												CHANNELS 3 Xrotation Yrotation Zrotation
												End Site
												{
													OFFSET 0 0 0
												}
											}
										}
									}
								}
							}
						}
					}
				}
			}
		}
	}
}
MOTION
Frames: 4
Frame Time: 0.03333333
-2.836726 113.091866 3.781830 0.000000 0.000000 0.000000 -7.633444 7.028598 -0.603237 -14.456577 13.441163 14.080051 23.002409 1.549753 5.039585 -2.215513 -12.040415 -10.745470 -2.219762 0.390049 -0.929151 0.000000 0.000000 0.000000 -7.851232 9.324923 -0.510048 1.310396 -8.798347 3.863627 19.360221 -8.485379 -7.208653 -9.838798 -15.089683 5.088365 -7.277303 -0.249265 -0.442039 0.000000 0.000000 0.000000 -7.306647 6.674379 -1.084038 2.741634 0.580493 4.573451 2.273696 0.473261 2.891727 0.840529 -1.499433 -0.075725 0.000000 0.000000 0.000000 1.637131 0.751955 2.865169 12.409236 -0.781750 -1.360457 3.177622 -10.394091 -7.737215 0.000000 0.000000 0.000000 1.433486 0.775773 2.680236 2.154324 -14.459835 -11.897582 -0.589672 0.219164 -2.513312 4.171030 -3.343414 -69.891741 -1.734429 -1.155001 -0.303962 0.000000 0.000000 0.000000 1.430582 0.558542 2.896699 1.914777 8.790564 18.940401 1.216627 4.168198 -2.054410 24.971137 7.002772 59.021024 0.826337 7.006568 0.640676 0.000000 0.000000 0.000000 
-2.705595 113.375198 3.810036 0.000000 0.000000 0.000000 -7.265559 6.424023 -0.668150 -14.362993 13.787107 13.843580 22.311250 1.259512 4.931459 -2.126321 -11.137592 -10.597125 -2.102904 0.370205 -0.952519 0.000000 0.000000 0.000000 -7.498717 8.588719 -0.603429 0.977387 -8.876318 3.720325 18.912995 -8.394053 -7.185339 -9.413885 -14.334207 5.187376 -7.328983 -0.219726 -0.431052 0.000000 0.000000 0.000000 -6.838573 6.213232 -1.135026 2.665871 0.468642 4.572453 2.355985 0.341246 2.877802 0.867531 -1.511732 -0.078732 0.000000 0.000000 0.000000 1.759258 0.580096 2.850764 12.205652 -0.534904 -1.253599 2.337443 -9.274301 -7.142555 0.000000 0.000000 0.000000 1.464760 0.601782 2.630046 2.158588 -14.669436 -12.206088 -0.652414 0.352676 -2.293208 4.544062 -2.265083 -70.111537 -1.649318 -0.921225 -0.202911 0.000000 0.000000 0.000000 1.540250 0.394710 2.904360 1.985695 8.111154 18.730301 0.894284 4.019944 -2.165148 26.979905 7.093398 58.162742 0.828640 6.867300 0.555727 0.000000 0.000000 0.000000 
-2.595093 113.655876 3.798817 0.000000 0.000000 0.000000 -6.890483 5.572979 -0.815224 -14.228467 14.069457 13.689689 21.618088 1.025911 4.792885 -2.120458 -9.993560 -10.451214 -1.986027 0.351563 -0.986266 0.000000 0.000000 0.000000 -7.124214 7.650086 -0.773952 0.644220 -9.004775 3.596688 18.426776 -8.304305 -7.105459 -9.038406 -13.325787 5.201823 -7.340339 -0.185485 -0.404650 0.000000 0.000000 0.000000 -6.362091 5.531836 -1.263379 2.618327 0.386497 4.580485 2.460616 0.234354 2.880454 0.903335 -1.369615 -0.067472 0.000000 0.000000 0.000000 1.874144 0.425098 2.860655 11.935073 -0.275501 -1.130968 1.513182 -8.060601 -6.543503 0.000000 0.000000 0.000000 1.501083 0.452789 2.589445 2.166495 -14.828641 -12.448735 -0.797549 0.557883 -2.098749 4.910693 -1.414301 -70.420719 -1.593130 -0.680571 -0.142894 0.000000 0.000000 0.000000 1.652399 0.259565 2.923363 2.025799 7.703959 18.582581 0.547744 3.807559 -2.167195 27.558200 6.508260 57.610310 0.720374 6.263328 0.561323 0.000000 0.000000 0.000000 
-2.514585 113.919449 3.737999 0.000000 0.000000 0.000000 -6.514939 4.566734 -1.031342 -14.085903 14.251224 13.607786 20.955907 0.823587 4.636605 -2.177771 -8.669340 -10.316417 -1.898991 0.334630 -1.026988 0.000000 0.000000 0.000000 -6.738214 6.585526 -1.007107 0.320641 -9.175500 3.499844 17.899388 -8.244072 -6.969859 -8.694815 -12.122882 5.126211 -7.303277 -0.154390 -0.365738 0.000000 0.000000 0.000000 -5.902672 4.656687 -1.466913 2.589806 0.333613 4.593444 2.584379 0.152177 2.893842 0.921254 -1.159739 -0.046359 0.000000 0.000000 0.000000 1.980791 0.301105 2.886620 11.581136 -0.011127 -0.985976 0.703578 -6.774257 -5.941622 0.000000 0.000000 0.000000 1.547989 0.335861 2.561116 2.186268 -14.933355 -12.583849 -0.992646 0.703993 -1.925104 5.329605 -0.959310 -70.759749 -1.569851 -0.528372 -0.139936 0.000000 0.000000 0.000000 1.748830 0.163529 2.950965 2.028047 7.567695 18.538308 0.346530 3.569190 -2.121882 26.769204 5.533581 57.350558 0.588303 5.417840 0.621846 0.000000 0.000000 0.000000 
